<?xml version="1.0" encoding="UTF-8"?>
<svg version="1.1" xmlns="http://www.w3.org/2000/svg" width="29" height="29">
<path d="M0 0 C3.95766929 1.94384543 6.32814316 4.96655167 8 9 C8.72798272 13.65570345 8.42814156 17.14371687 6.3125 21.375 C3.40542645 24.67492133 1.34201838 26.64869724 -3.109375 27.31640625 C-8.57076296 27.60047173 -11.73806505 26.6530871 -16 23 C-19.54049643 19.06894521 -19.61307166 15.90967815 -19.49609375 10.76953125 C-18.71089847 6.38603948 -16.37480898 3.78028304 -13 1 C-9.0327265 -0.98363675 -4.3131746 -0.54751158 0 0 Z " fill="#070501" transform="translate(20,1)"/>
<path d="M0 0 C0.93065133 2.60582371 1.14917407 3.64198224 0.0625 6.25 C-0.288125 6.8275 -0.63875 7.405 -1 8 C2.16115776 6.63016497 2.9927092 6.0109362 5 3 C6 4 6 4 6.25 7.375 C6 11 6 11 4.6875 12.75 C4.130625 13.1625 3.57375 13.575 3 14 C2.443125 14.556875 1.88625 15.11375 1.3125 15.6875 C0.879375 16.120625 0.44625 16.55375 0 17 C1.98 16.67 3.96 16.34 6 16 C4.25894589 18.42233615 2.87470667 19.81559356 -0.09375 20.44140625 C-4.53740812 20.67099525 -6.4156247 20.46263045 -10 17.625 C-12.90783383 13.8084681 -13.29986789 11.79788625 -13 7 C-12.34 6.34 -11.68 5.68 -11 5 C-10.608125 5.94875 -10.21625 6.8975 -9.8125 7.875 C-7.80206144 11.34127338 -6.77300358 11.9802693 -3 13 C-3 12.01 -3 11.02 -3 10 C-4.32 9.67 -5.64 9.34 -7 9 C-8.33157895 3.55263158 -8.33157895 3.55263158 -6.875 1.125 C-4.46277487 -0.32233508 -2.7648665 -0.22417836 0 0 Z " fill="#E7B22C" transform="translate(17,4)"/>
</svg>
